REM DIRINDEX 1\2\4,1\2\5,1\2\6,1\3\7,1\3\8
REM DIRNAME folder01,folder02,folder03,folder04,folder05,folder06,folder07,folder08
TITLE ""
FILE "044_Proficiency Test09.mp3" MP3
  TRACK 01 AUDIO
    TITLE "0:"
    INDEX 01 00:00:00
  TRACK 02 AUDIO
    TITLE "8:cjc128_4018"
    INDEX 01 00:00:23
  TRACK 03 AUDIO
    TITLE "0:"
    INDEX 01 00:02:63
  TRACK 04 AUDIO
    TITLE "8:cjc128_4019"
    INDEX 01 00:03:33
  TRACK 05 AUDIO
    TITLE "0:"
    INDEX 01 00:05:52
  TRACK 06 AUDIO
    TITLE "7:cjc128_4020"
    INDEX 01 00:06:28
  TRACK 07 AUDIO
    TITLE "0:"
    INDEX 01 00:09:08
  TRACK 08 AUDIO
    TITLE "8:cjc128_4021"
    INDEX 01 00:12:14
  TRACK 09 AUDIO
    TITLE "0:"
    INDEX 01 00:14:15
  TRACK 10 AUDIO
    TITLE "7:cjc128_4022"
    INDEX 01 00:14:68
  TRACK 11 AUDIO
    TITLE "0:"
    INDEX 01 00:18:15
  TRACK 12 AUDIO
    TITLE "8:cjc128_4023"
    INDEX 01 00:22:11
  TRACK 13 AUDIO
    TITLE "0:"
    INDEX 01 00:24:29
  TRACK 14 AUDIO
    TITLE "7:cjc128_4024"
    INDEX 01 00:25:05
  TRACK 15 AUDIO
    TITLE "0:"
    INDEX 01 00:29:21
